# xmcd CD database file
# Copyright (C) 1993-1998 Ti Kan
#
# Track frame offsets:
#	150
#	18870
#	33560
#	45287
#	60207
#	72110
#	85130
#	99992
#	114537
#	130162
#
# Disc length: 1896 seconds
#
# Revision: 2
# Processed by: cddbd v1.4b41PL1 Copyright (c) Steve Scherf et al.
# Submitted via: CDValet v3.31 - Copyright (c) 1997 Greg Leichner
#
DISCID=6f07660a
DTITLE=Charles Brown - Blues N' Brown
DYEAR=1900
DGENRE=
TTITLE0=For You
TTITLE1=When Did You Leave Heaven
TTITLE2=I Don't Know
TTITLE3=Graveyard Song
TTITLE4=Trouble Blues
TTITLE5=Jilted
TTITLE6=Changeable Woman Blues
TTITLE7=Black Night
TTITLE8=Falling In Love
TTITLE9=Moonlight And Shadows
EXTD=
EXTT0=
EXTT1=
EXTT2=
EXTT3=
EXTT4=
EXTT5=
EXTT6=
EXTT7=
EXTT8=
EXTT9=
PLAYORDER=
